{"glyphs":{":":{"x_min":0,"x_max":316,"ha":316,"o":"m 307 327 l 286 327 q 282 314 269 281 l 182 281 q 167 296 134 318 l 134 380 q 155 400 202 400 q 243 400 260 396 q 295 388 307 361 z m 243 72 q 233 68 219 47 q 200 21 195 16 q 187 16 160 10 q 132 4 119 4 q 111 4 93 10 q 75 15 60 15 l 60 81 q 60 102 100 136 q 139 170 156 170 q 168 170 188 153 q 214 132 221 128 q 222 124 243 72 z"},"$":{"x_min":0,"x_max":556,"ha":556,"o":"m 249 -103 l 249 -15 q 183 -7 142 14 q 101 36 71 83 q 41 130 36 199 l 124 215 q 134 145 160 111 q 197 64 249 59 l 249 339 q 195 349 138 381 q 96 404 74 446 q 51 487 51 540 q 51 634 117 692 q 162 731 249 740 l 249 782 l 301 782 l 301 740 q 377 732 422 695 q 480 647 492 563 l 401 550 q 393 602 368 630 q 344 657 301 666 l 301 412 q 367 396 389 386 q 430 368 456 342 q 481 316 495 280 q 509 245 509 204 q 509 112 451 51 q 393 -10 301 -14 l 301 -103 z m 249 667 q 198 659 168 626 q 139 592 139 547 q 139 502 164 472 q 189 441 249 423 z m 301 59 q 352 65 386 104 q 419 142 419 198 q 419 246 396 275 q 372 304 301 327 z"},"?":{"x_min":0,"x_max":556,"ha":556,"o":"m 230 176 q 230 194 230 203 q 230 254 245 292 q 255 320 279 349 q 297 370 342 410 q 388 451 402 475 q 416 499 416 527 q 416 578 376 617 q 335 656 277 656 q 221 656 184 620 q 146 585 134 511 l 44 521 q 56 622 116 675 q 177 728 276 728 q 381 728 444 671 q 506 614 506 533 q 506 486 484 446 q 462 407 398 350 q 355 312 342 294 q 329 276 322 252 q 316 229 315 176 z m 225 0 l 225 100 l 325 100 l 325 0 z"},"<":{"x_min":0,"x_max":583,"ha":583,"o":"m 55 313 l 55 395 l 529 595 l 529 508 l 153 354 l 529 198 l 529 110 z"},"'":{"x_min":0,"x_max":298,"ha":298,"o":"m 227 631 q 227 624 220 620 q 214 617 214 617 q 213 598 187 532 q 157 525 130 495 q 122 494 102 491 q 81 488 74 488 q 53 488 44 494 q 35 500 21 525 q 55 525 73 523 q 91 521 91 521 q 136 521 157 579 q 152 581 115 584 q 111 590 106 596 q 100 603 100 610 q 100 626 134 659 q 142 663 160 671 q 160 669 165 662 q 170 655 170 653 q 168 653 163 651 q 158 649 155 649 q 153 642 151 635 q 149 628 137 623 q 133 623 133 618 q 134 615 136 612 q 138 610 145 610 q 153 610 166 622 q 179 635 183 646 q 189 662 180 680 q 197 680 227 675 z"},"=":{"x_min":0,"x_max":583,"ha":583,"o":"m 528 421 l 56 421 l 56 503 l 528 503 z m 528 204 l 56 204 l 56 286 l 528 286 z"},"a":{"x_min":0,"x_max":522,"ha":522,"o":"m 513 491 q 513 427 500 386 q 480 336 442 226 q 403 116 387 3 q 378 3 356 -15 q 323 -41 313 -47 l 282 -47 q 275 -40 268 -32 q 261 -24 261 -10 q 261 -4 312 110 q 364 223 364 258 l 364 284 q 360 289 357 294 q 354 299 340 299 q 324 299 306 283 q 254 276 202 268 q 159 259 144 227 q 130 195 116 137 q 103 83 91 29 l 29 29 q 8 62 8 93 q 8 141 29 258 q 33 279 53 319 q 75 363 80 380 q 81 385 84 421 q 86 450 95 465 q 104 480 171 547 q 207 583 270 628 q 333 673 349 673 q 387 673 453 589 q 513 512 513 491 z m 401 444 q 401 561 345 561 q 304 561 249 511 q 206 472 177 427 l 177 338 q 224 343 260 340 q 314 336 303 336 q 401 336 401 444 z"},"L":{"x_min":0,"x_max":981,"ha":981,"o":"m 962 -58 q 962 -82 929 -120 q 887 -169 881 -180 q 767 -147 664 -73 q 635 -52 577 -49 q 579 -49 481 -49 q 474 -49 438 -47 q 408 -45 387 -46 q 357 -48 333 -56 q 214 -93 126 -179 l 21 -179 q 21 -173 10 -140 q 0 -108 0 -87 q 0 -42 37 15 q 87 93 88 96 q 215 404 345 776 q 353 786 375 798 q 397 810 406 819 q 427 797 489 797 l 489 618 q 490 596 463 573 q 429 545 419 523 q 392 461 352 332 q 310 200 282 134 q 345 119 429 119 q 483 119 537 125 q 552 127 601 144 q 646 158 670 158 q 757 158 922 117 q 922 96 942 31 q 962 -34 962 -58 z"},"3":{"x_min":0,"x_max":669,"ha":669,"o":"m 269 510 q 269 493 243 422 q 220 359 197 297 q 172 227 172 88 q 172 84 174 59 q 175 38 174 26 q 173 7 167 -4 q 152 -9 122 -28 q 100 -43 82 -43 q 49 -43 25 -3 q 8 27 8 44 q 8 55 49 193 q 94 344 103 387 q 110 422 115 500 q 120 577 127 608 q 137 660 161 677 q 201 676 238 601 q 269 538 269 510 z m 469 520 q 469 503 443 432 q 420 369 397 307 q 372 237 372 98 q 372 94 374 69 q 375 48 374 36 q 373 17 367 6 q 352 1 322 -18 q 300 -33 282 -33 q 249 -33 225 7 q 208 37 208 54 q 208 65 249 203 q 294 354 303 397 q 310 432 315 510 q 320 587 327 618 q 337 670 361 687 q 401 686 438 611 q 469 548 469 520 z m 659 510 q 659 493 633 422 q 610 359 587 297 q 562 227 562 88 q 562 84 564 59 q 565 38 564 26 q 563 7 557 -4 q 542 -9 512 -28 q 490 -43 472 -43 q 439 -43 415 -3 q 398 27 398 44 q 398 55 439 193 q 484 344 493 387 q 500 422 505 500 q 510 577 517 608 q 527 660 551 677 q 591 676 628 601 q 659 538 659 510 z"},";":{"x_min":0,"x_max":298,"ha":298,"o":"m 227 51 q 227 44 220 40 q 214 37 214 37 q 213 18 187 -48 q 157 -55 130 -85 q 122 -86 102 -89 q 81 -92 74 -92 q 53 -92 44 -86 q 35 -80 21 -55 q 55 -55 73 -57 q 91 -59 91 -59 q 136 -59 157 -1 q 152 1 115 4 q 111 10 106 16 q 100 23 100 30 q 100 46 134 79 q 142 83 160 91 q 160 89 165 82 q 170 75 170 73 q 168 73 163 71 q 158 69 155 69 q 153 62 151 55 q 149 48 137 43 q 133 43 133 38 q 134 35 136 32 q 138 30 145 30 q 153 30 166 42 q 179 55 183 66 q 189 82 180 100 q 197 100 227 95 z m 277 327 l 256 327 q 252 314 239 281 l 152 281 q 137 296 104 318 l 104 380 q 125 400 172 400 q 213 400 230 396 q 265 388 277 361 z"},"J":{"x_min":0,"x_max":1136,"ha":1136,"o":"m 1270 725 l 1256 702 q 1248 699 1235 699 q 1224 699 1202 702 q 1179 706 1171 706 q 1136 706 1084 689 q 1011 665 995 662 q 958 654 948 651 q 917 641 896 626 q 875 518 802 239 q 732 -31 712 -139 q 696 -150 680 -161 q 659 -176 641 -176 q 625 -176 588 -146 q 560 -122 532 -97 q 490 -66 430 -46 q 412 -39 322 -16 q 195 17 13 37 q 13 41 6 50 q 0 60 0 76 q 0 128 121 186 q 225 235 265 235 q 295 235 328 221 q 328 192 323 181 q 314 182 294 171 q 298 162 314 144 q 404 139 483 87 q 543 43 604 0 q 628 71 718 317 q 788 509 789 525 l 789 591 q 774 600 700 600 q 692 600 621 572 q 541 540 522 522 q 518 517 514 513 q 506 506 488 506 q 471 506 456 512 q 441 519 437 519 l 437 574 q 589 639 687 662 q 690 662 711 684 q 732 706 747 706 q 762 706 762 700 q 762 694 776 694 q 791 694 947 753 q 1103 812 1118 812 q 1155 812 1183 795 q 1200 785 1226 760 q 1253 734 1270 725 z"},"V":{"x_min":0,"x_max":952,"ha":952,"o":"m 939 686 q 875 669 875 595 q 875 609 881 511 q 837 487 781 410 q 732 340 718 297 q 711 278 676 225 q 629 156 619 138 q 582 75 519 10 q 453 -59 387 -96 q 238 -180 186 -180 q 160 -180 124 -118 q 87 -57 83 -15 q 76 119 69 253 q 54 436 0 533 q 0 628 12 688 q 24 747 24 740 q 57 724 89 708 q 128 688 148 670 q 175 570 202 399 q 245 127 251 92 q 267 92 304 55 q 512 254 653 571 q 683 640 808 791 q 807 800 853 800 q 881 800 906 788 q 932 777 939 777 z"},"\"":{"x_min":0,"x_max":979,"ha":979,"o":"m 206 631 q 206 624 200 620 q 193 617 193 617 q 192 598 166 532 q 136 525 109 495 q 101 494 80 491 q 60 488 53 488 q 32 488 23 494 q 14 500 0 525 q 34 525 52 523 q 70 521 70 521 q 115 521 136 579 q 131 581 94 584 q 90 590 84 596 q 79 603 79 610 q 79 626 113 659 q 121 663 139 671 q 139 669 144 662 q 149 655 149 653 q 147 653 142 651 q 137 649 134 649 q 132 642 130 635 q 128 628 116 623 q 112 623 112 618 q 113 615 115 612 q 117 610 124 610 q 132 610 145 622 q 158 635 162 646 q 168 662 159 680 q 176 680 206 675 z m 386 631 q 386 624 380 620 q 373 617 373 617 q 372 598 346 532 q 316 525 289 495 q 281 494 260 491 q 240 488 233 488 q 212 488 203 494 q 194 500 180 525 q 214 525 232 523 q 250 521 250 521 q 295 521 316 579 q 311 581 274 584 q 270 590 264 596 q 259 603 259 610 q 259 626 293 659 q 301 663 319 671 q 319 669 324 662 q 329 655 329 653 q 327 653 322 651 q 317 649 314 649 q 312 642 310 635 q 308 628 296 623 q 292 623 292 618 q 293 615 295 612 q 297 610 304 610 q 312 610 325 622 q 338 635 342 646 q 348 662 339 680 q 356 680 386 675 z"},"7":{"x_min":0,"x_max":1044,"ha":1044,"o":"m 677 581 q 631 569 631 515 q 631 525 636 455 q 604 438 564 382 q 528 332 518 301 q 514 287 488 249 q 455 199 447 186 q 420 141 375 94 q 327 45 280 18 q 173 -43 136 -43 q 117 -43 90 1 q 64 45 61 76 q 56 172 51 269 q 40 401 2 470 q 2 539 10 582 q 19 625 19 619 q 52 604 108 569 q 128 497 147 374 q 178 178 182 153 q 194 153 220 126 q 370 269 471 498 q 493 548 583 656 q 583 663 616 663 q 636 663 654 655 q 673 647 677 647 z m 859 510 q 859 493 833 422 q 810 359 787 297 q 762 227 762 88 q 762 84 764 59 q 765 38 764 26 q 763 7 757 -4 q 742 -9 712 -28 q 690 -43 672 -43 q 639 -43 615 -3 q 598 27 598 44 q 598 55 639 193 q 684 344 693 387 q 700 422 705 500 q 710 577 717 608 q 727 660 751 677 q 791 676 828 601 q 859 538 859 510 z m 1039 510 q 1039 493 1013 422 q 990 359 967 297 q 942 227 942 88 q 942 84 944 59 q 945 38 944 26 q 943 7 937 -4 q 922 -9 892 -28 q 870 -43 852 -43 q 819 -43 795 -3 q 778 27 778 44 q 778 55 819 193 q 864 344 873 387 q 880 422 885 500 q 890 577 897 608 q 907 660 931 677 q 971 676 1008 601 q 1039 538 1039 510 z"},"S":{"x_min":0,"x_max":1055,"ha":1055,"o":"m 1081 671 q 1081 634 1021 586 q 977 550 926 526 q 887 578 847 630 q 823 655 742 655 q 713 655 617 619 q 529 586 450 548 l 450 471 q 483 457 552 445 q 631 431 656 423 q 739 395 818 269 q 887 157 887 98 q 887 41 863 16 q 827 -20 823 -24 q 792 -52 770 -66 q 702 -108 612 -146 q 523 -184 492 -184 l 387 -184 q 363 -184 251 -159 q 148 -136 70 -115 q 62 -113 43 -87 q 20 -58 6 -48 q 0 -31 0 2 q 0 44 41 87 q 87 133 133 180 q 146 184 159 188 q 176 193 186 203 q 210 166 235 129 q 263 89 286 77 q 336 51 425 29 q 505 10 540 10 q 605 10 666 54 q 726 98 726 147 q 726 167 712 193 q 699 219 681 231 q 638 259 509 298 q 377 338 327 369 q 242 420 242 502 q 242 527 273 569 q 300 606 331 632 q 362 657 436 680 q 523 706 553 722 q 695 802 860 802 q 877 802 910 801 q 944 800 960 800 q 983 800 1032 748 q 1081 696 1081 671 z"},"}":{"x_min":0,"x_max":333,"ha":333,"o":"m 306 299 l 306 219 q 268 218 244 198 q 221 179 213 146 q 205 112 204 30 q 204 -51 202 -77 q 197 -118 185 -142 q 173 -167 156 -182 q 138 -197 111 -205 q 92 -210 50 -210 l 23 -210 l 23 -134 l 38 -134 q 89 -134 106 -116 q 122 -97 122 -33 q 122 89 126 122 q 134 176 158 208 q 181 241 224 259 q 168 286 145 330 q 122 374 122 479 q 122 574 120 593 q 116 625 100 638 q 84 651 38 651 l 23 651 l 23 728 l 50 728 q 98 728 120 720 q 151 709 172 684 q 192 659 198 620 q 204 582 204 494 q 205 406 213 372 q 221 339 244 320 q 268 300 306 299 z"},"Z":{"x_min":0,"x_max":1000,"ha":1000,"o":"m 1000 -55 q 985 -62 952 -88 q 918 -113 903 -119 q 894 -122 878 -122 q 862 -122 810 -114 q 759 -107 731 -108 q 668 -107 605 -107 q 521 -107 469 -121 q 398 -139 364 -184 q 359 -183 300 -152 q 264 -133 237 -133 q 221 -133 206 -138 q 185 -117 185 -69 q 185 -12 204 22 q 235 68 267 114 q 334 220 539 560 q 465 628 327 628 q 306 628 264 626 q 222 625 201 625 q 70 625 0 686 q 14 692 50 722 q 81 747 99 748 q 136 751 341 756 q 516 761 605 772 q 613 779 621 794 q 629 808 637 815 q 638 815 704 786 q 742 770 795 769 q 815 749 815 700 q 815 632 793 603 q 722 512 621 347 q 529 198 461 70 q 494 39 517 33 q 523 31 562 31 q 580 31 603 19 q 631 6 640 4 q 666 -2 710 -2 q 725 -2 758 -1 q 790 0 807 0 q 944 0 1000 -55 z"},"x":{"x_min":0,"x_max":717,"ha":717,"o":"m 709 65 q 673 -10 624 -34 q 609 6 508 99 q 401 199 358 199 q 331 199 314 181 q 294 160 292 159 q 231 49 163 -16 q 132 -16 99 -5 q 66 6 62 6 q 69 18 69 39 q 69 86 43 138 q 79 165 142 218 q 205 272 241 299 q 208 340 164 377 q 133 404 84 438 q 18 484 8 492 q 8 524 18 556 q 29 589 29 594 q 42 587 63 587 q 109 587 162 613 q 189 577 242 514 q 295 451 322 415 q 330 423 454 553 q 533 637 591 685 q 668 646 690 602 q 604 533 439 335 q 442 332 580 200 q 666 119 709 65 z"},")":{"x_min":0,"x_max":333,"ha":333,"o":"m 124 -210 l 61 -210 q 207 24 207 259 q 207 351 186 441 q 169 514 139 582 q 120 625 61 728 l 124 728 q 215 605 259 482 q 297 375 297 259 q 297 127 246 4 q 196 -119 124 -210 z"},"&":{"x_min":0,"x_max":1000,"ha":1000,"o":"m 987 479 q 969 480 930 465 q 870 443 859 440 q 839 434 709 391 q 612 359 548 347 q 527 336 494 310 q 493 283 475 183 q 457 88 457 27 q 404 20 321 43 q 314 84 314 128 q 314 203 335 280 q 326 293 315 307 q 304 321 280 321 q 261 321 256 306 q 251 290 231 291 l 9 291 l 9 365 q 36 373 112 384 q 193 395 236 407 q 307 426 353 463 q 394 495 417 577 q 428 616 446 725 l 516 725 q 565 705 565 660 q 565 646 558 608 q 551 571 552 550 q 560 540 568 532 q 575 523 600 523 q 619 523 661 546 q 712 574 730 580 q 802 601 888 601 q 906 601 939 592 q 972 583 987 583 z"},"_":{"x_min":0,"x_max":466,"ha":466,"o":"m 441 143 q 441 92 360 71 q 316 60 258 60 q 249 60 200 64 q 152 69 141 69 q 131 69 104 43 q 76 17 67 17 q 55 17 41 26 q 27 36 24 36 q 37 66 72 103 q 115 147 150 147 q 161 147 189 142 q 217 138 228 138 q 232 138 250 137 q 267 136 278 137 q 294 137 305 140 q 313 143 353 168 q 388 191 402 191 q 413 191 418 186 q 423 181 431 181 q 431 178 436 166 q 441 155 441 143 z"},"v":{"x_min":0,"x_max":682,"ha":682,"o":"m 677 581 q 631 569 631 515 q 631 525 636 455 q 604 438 564 382 q 528 332 518 301 q 514 287 488 249 q 455 199 447 186 q 420 141 375 94 q 327 45 280 18 q 173 -43 136 -43 q 117 -43 90 1 q 64 45 61 76 q 56 172 51 269 q 40 401 2 470 q 2 539 10 582 q 19 625 19 619 q 52 604 108 569 q 128 497 147 374 q 178 178 182 153 q 194 153 220 126 q 370 269 471 498 q 493 548 583 656 q 583 663 616 663 q 636 663 654 655 q 673 647 677 647 z"},"O":{"x_min":0,"x_max":1111,"ha":1111,"o":"m 1098 408 q 1098 350 1011 178 q 931 20 911 3 q 850 -47 721 -106 q 599 -161 559 -161 l 375 -161 q 347 -161 317 -161 q 287 -162 283 -162 q 260 -162 238 -145 q 192 -109 86 -60 q 46 24 32 201 q 32 205 15 238 q 0 268 0 300 q 0 326 33 408 q 59 470 84 531 q 119 624 289 715 q 446 800 539 800 q 632 800 760 750 q 901 694 991 612 q 1098 515 1098 408 z m 882 359 q 882 435 846 516 q 798 624 716 624 q 653 624 614 585 q 594 565 560 503 q 529 448 501 427 q 463 465 438 525 q 433 536 404 623 q 389 608 327 561 q 275 522 261 502 q 229 453 193 359 q 157 265 157 231 q 157 173 259 3 q 286 -4 353 -4 q 428 -4 441 4 q 454 29 483 48 q 544 52 634 92 q 737 137 802 199 q 882 276 882 359 z"},"(":{"x_min":0,"x_max":333,"ha":333,"o":"m 234 -210 q 161 -119 111 4 q 61 127 61 259 q 61 375 98 482 q 142 605 234 728 l 297 728 q 238 626 219 583 q 189 516 172 442 q 151 351 151 259 q 151 24 297 -210 z"},"C":{"x_min":0,"x_max":1044,"ha":1044,"o":"m 1031 44 q 1011 1 959 -70 q 903 -79 727 -119 q 575 -153 556 -153 q 538 -153 502 -161 q 465 -169 445 -169 q 426 -169 418 -154 q 410 -138 391 -138 q 374 -138 306 -154 q 239 -169 219 -169 q 99 -169 48 -52 q 16 23 16 128 q 16 238 46 355 q 77 479 130 556 q 159 598 316 693 q 318 694 361 733 q 398 767 427 778 q 476 796 570 807 q 644 816 688 816 q 738 816 792 809 l 820 792 q 906 660 906 613 q 906 550 813 465 q 720 380 654 380 q 648 380 642 381 q 642 386 634 418 q 626 450 626 468 q 668 489 710 540 q 750 588 750 613 q 750 691 641 691 q 619 691 538 657 q 478 632 417 607 q 391 597 354 535 q 330 491 305 448 q 219 326 219 277 q 219 257 237 186 q 265 77 268 62 q 321 14 330 10 q 343 3 398 3 q 418 3 512 -5 q 605 -13 625 -13 q 655 -13 776 24 q 897 62 978 97 z"},"W":{"x_min":0,"x_max":1110,"ha":1110,"o":"m 1096 231 q 1096 91 969 -45 q 838 -186 692 -186 q 571 -186 514 -125 q 462 -68 434 78 q 423 96 403 115 q 361 86 230 -44 q 116 -159 101 -158 l 31 -158 q 14 -128 14 -56 q 14 -42 58 130 q 113 348 141 474 q 143 483 163 546 q 180 596 182 631 q 203 647 237 676 q 244 676 268 662 q 293 647 300 647 l 300 600 q 301 584 280 537 q 255 481 250 463 q 217 341 207 294 q 183 190 174 101 q 233 148 301 222 q 385 313 415 375 q 469 356 496 317 q 517 286 526 236 q 532 193 538 150 q 541 130 559 83 q 577 36 578 15 q 596 -8 637 -8 q 662 -8 705 26 q 743 56 781 86 q 828 128 845 166 q 863 209 878 285 q 890 351 890 382 q 890 467 853 553 q 809 654 730 707 q 728 726 724 737 q 717 756 699 765 q 706 771 716 789 q 725 807 731 814 q 877 757 938 684 q 998 611 1047 470 q 1096 330 1096 231 z"},"A":{"x_min":0,"x_max":716,"ha":716,"o":"m 701 560 q 701 471 683 415 q 655 344 600 194 q 548 40 526 -117 q 513 -118 483 -142 q 437 -178 424 -187 l 380 -187 q 370 -177 360 -166 q 351 -156 351 -135 q 351 -127 422 30 q 494 188 494 237 l 494 272 q 489 280 485 288 q 481 293 461 293 q 440 293 430 286 q 421 279 414 271 q 342 261 270 251 q 210 238 190 194 q 169 149 149 68 q 132 -7 114 -82 l 29 -82 q 0 -36 0 8 q 0 74 29 236 q 35 265 63 321 q 93 383 99 406 q 101 413 105 463 q 109 503 121 524 q 133 545 226 637 q 277 688 362 749 q 451 813 474 813 q 526 813 617 697 q 701 590 701 560 z m 545 495 q 545 547 534 588 q 514 657 468 657 q 411 657 335 588 q 275 534 235 471 l 235 347 q 278 352 315 352 q 343 352 372 348 q 402 345 409 345 q 545 345 545 495 z"},"f":{"x_min":0,"x_max":721,"ha":721,"o":"m 708 601 q 708 566 688 530 l 625 530 q 614 530 602 539 q 590 548 579 548 q 563 548 307 478 q 303 468 303 456 q 303 443 314 400 q 290 371 290 335 q 290 319 305 290 q 301 299 322 299 q 333 299 390 317 q 448 335 459 335 q 467 335 522 330 q 576 324 601 323 l 601 277 q 602 248 562 248 q 514 247 422 230 q 304 208 262 203 q 249 122 227 -38 q 224 -38 217 -43 q 210 -48 197 -48 q 147 -48 147 19 q 147 46 156 92 q 166 137 166 142 l 152 157 l 145 148 l 70 148 q 67 157 59 171 q 67 174 111 219 q 147 256 178 256 q 186 256 194 254 q 194 263 202 426 q 199 429 196 433 q 197 432 179 432 q 166 432 121 412 q 83 396 45 379 q 41 384 30 390 q 20 395 15 399 q 15 422 26 428 q 113 474 253 522 q 377 564 444 576 q 449 584 462 597 q 488 606 574 642 q 647 672 655 672 q 681 672 696 649 q 708 629 708 601 z"},"Q":{"x_min":0,"x_max":961,"ha":961,"o":"m 944 198 q 944 155 819 -27 q 818 -37 828 -64 q 837 -91 837 -115 q 837 -136 831 -159 q 830 -181 787 -181 q 766 -181 717 -126 q 668 -70 648 -70 q 625 -70 551 -107 q 477 -144 454 -144 l 287 -144 q 257 -144 212 -117 q 166 -90 132 -56 q 121 -45 74 -13 q 35 13 24 31 q 4 65 0 146 q 0 152 0 263 q 0 308 18 384 q 39 476 69 518 q 91 550 99 604 q 126 617 180 668 q 233 719 264 736 q 314 765 390 792 q 466 818 500 818 q 526 818 574 784 q 609 757 645 729 q 826 588 890 466 q 944 361 944 198 z m 796 300 q 796 372 788 388 q 763 417 731 457 q 663 501 556 548 q 448 596 417 596 q 340 596 285 480 q 245 395 221 259 q 204 163 204 124 q 204 97 214 73 q 225 49 225 43 q 260 43 326 40 q 392 38 423 38 q 490 38 537 47 q 518 66 490 95 q 463 124 444 143 q 454 152 478 156 q 501 161 510 170 q 621 96 657 96 q 717 96 760 174 q 796 240 796 300 z"},"w":{"x_min":0,"x_max":793,"ha":793,"o":"m 784 254 q 784 153 693 55 q 599 -46 493 -46 q 406 -46 365 -2 q 328 39 308 144 q 300 157 286 171 q 255 150 161 56 q 79 -26 68 -26 l 17 -26 q 5 -5 5 47 q 5 57 37 181 q 77 338 97 429 q 110 464 126 542 q 141 553 166 575 q 171 575 188 564 q 206 554 212 554 l 212 520 q 212 508 197 474 q 179 434 175 421 q 152 333 144 299 q 127 225 121 160 q 163 194 212 247 q 273 313 294 358 q 348 339 366 288 q 370 278 382 196 q 385 182 398 148 q 410 114 412 98 q 424 82 454 82 q 472 82 503 107 q 530 128 558 150 q 592 180 604 207 q 617 238 627 293 q 636 340 636 363 q 636 424 609 486 q 578 559 521 597 q 520 611 517 618 q 511 632 498 638 q 503 643 510 656 q 517 669 522 674 q 626 633 670 580 q 714 528 749 426 q 784 325 784 254 z"},"-":{"x_min":0,"x_max":466,"ha":466,"o":"m 441 293 q 441 242 360 221 q 316 210 258 210 q 249 210 200 214 q 152 219 141 219 q 131 219 104 193 q 76 167 67 167 q 55 167 41 176 q 27 186 24 186 q 37 216 72 253 q 115 297 150 297 q 161 297 189 292 q 217 288 228 288 q 232 288 250 287 q 267 286 278 287 q 294 287 305 290 q 313 293 353 318 q 388 341 402 341 q 413 341 418 336 q 423 331 431 331 q 431 328 436 316 q 441 305 441 293 z"},"E":{"x_min":0,"x_max":912,"ha":912,"o":"m 895 -111 q 809 -135 677 -160 q 552 -183 517 -183 l 233 -183 q 114 -183 57 -6 q 17 119 17 283 q 17 296 28 434 q 39 573 39 622 q 78 672 166 689 q 246 699 327 710 q 423 726 475 776 q 513 779 623 799 q 723 817 741 817 q 765 817 811 796 q 845 780 878 764 l 878 664 q 841 643 804 623 q 750 593 724 593 q 703 593 694 610 q 685 628 664 628 q 649 628 502 594 q 347 558 287 552 q 244 548 189 497 l 189 413 q 199 404 210 395 q 222 386 250 386 q 272 386 354 412 q 435 438 457 438 q 487 438 672 345 q 609 248 560 248 q 542 248 542 253 q 542 254 543 256 q 544 259 544 261 q 544 266 526 266 q 483 266 378 244 q 252 219 171 185 q 174 75 202 41 q 231 7 328 7 q 382 7 507 28 q 523 31 562 63 q 597 93 621 93 q 640 93 671 58 q 702 24 724 24 q 741 24 741 31 q 741 34 738 41 q 734 48 734 51 q 734 59 750 59 q 770 59 804 40 q 842 20 857 17 q 866 11 876 -14 q 888 -42 895 -50 z"},"s":{"x_min":0,"x_max":785,"ha":785,"o":"m 779 570 q 779 543 736 508 q 704 483 668 465 q 640 503 611 540 q 594 558 535 558 q 486 558 326 481 l 326 426 q 349 415 399 407 q 456 397 473 391 q 533 371 590 280 q 640 200 640 157 q 640 116 622 98 q 602 76 556 39 q 507 9 442 -18 q 377 -46 355 -46 l 280 -46 q 234 -46 52 4 q 46 5 32 24 q 15 45 5 52 q 1 64 1 88 q 1 118 30 149 q 64 182 97 216 q 110 218 135 233 q 153 206 170 179 q 191 151 207 142 q 243 123 308 108 q 365 93 390 93 q 437 93 480 125 q 524 157 524 192 q 524 207 514 226 q 504 244 492 253 q 460 273 368 301 q 273 330 237 352 q 175 389 175 448 q 175 466 198 496 q 217 523 240 542 q 262 560 315 576 q 378 595 399 607 q 502 664 620 664 q 633 664 657 663 q 681 662 692 662 q 709 662 744 625 q 779 588 779 570 z"},">":{"x_min":0,"x_max":583,"ha":583,"o":"m 529 313 l 55 110 l 55 198 l 430 354 l 55 508 l 55 595 l 529 395 z"},"l":{"x_min":0,"x_max":707,"ha":707,"o":"m 698 47 q 698 31 673 3 q 643 -32 639 -40 q 557 -16 483 37 q 462 52 420 54 q 422 54 351 54 q 346 54 320 56 q 298 57 283 56 q 262 55 244 49 q 159 22 96 -40 l 20 -40 q 20 -35 12 -12 q 5 12 5 27 q 5 59 31 100 q 67 156 68 159 q 159 380 253 648 q 259 655 274 664 q 290 673 297 679 q 312 663 357 663 l 357 535 q 357 518 338 502 q 313 482 306 466 q 287 421 258 328 q 228 234 208 186 q 286 167 391 180 q 402 181 438 193 q 470 203 487 203 q 550 203 669 174 q 669 159 684 112 q 698 65 698 47 z"},"8":{"x_min":0,"x_max":1247,"ha":1247,"o":"m 677 581 q 631 569 631 515 q 631 525 636 455 q 604 438 564 382 q 528 332 518 301 q 514 287 488 249 q 455 199 447 186 q 420 141 375 94 q 327 45 280 18 q 173 -43 136 -43 q 117 -43 90 1 q 64 45 61 76 q 56 172 51 269 q 40 401 2 470 q 2 539 10 582 q 19 625 19 619 q 52 604 108 569 q 128 497 147 374 q 178 178 182 153 q 194 153 220 126 q 370 269 471 498 q 493 548 583 656 q 583 663 616 663 q 636 663 654 655 q 673 647 677 647 z m 859 510 q 859 493 833 422 q 810 359 787 297 q 762 227 762 88 q 762 84 764 59 q 765 38 764 26 q 763 7 757 -4 q 742 -9 712 -28 q 690 -43 672 -43 q 639 -43 615 -3 q 598 27 598 44 q 598 55 639 193 q 684 344 693 387 q 700 422 705 500 q 710 577 717 608 q 727 660 751 677 q 791 676 828 601 q 859 538 859 510 z m 1039 510 q 1039 493 1013 422 q 990 359 967 297 q 942 227 942 88 q 942 84 944 59 q 945 38 944 26 q 943 7 937 -4 q 922 -9 892 -28 q 870 -43 852 -43 q 819 -43 795 -3 q 778 27 778 44 q 778 55 819 193 q 864 344 873 387 q 880 422 885 500 q 890 577 897 608 q 907 660 931 677 q 971 676 1008 601 q 1039 538 1039 510 z m 1229 510 q 1229 493 1203 422 q 1180 359 1157 297 q 1132 227 1132 88 q 1132 84 1134 59 q 1135 38 1134 26 q 1133 7 1127 -4 q 1112 -9 1082 -28 q 1060 -43 1042 -43 q 1009 -43 985 -3 q 968 27 968 44 q 968 55 1009 193 q 1054 344 1063 387 q 1070 422 1075 500 q 1080 577 1087 608 q 1097 660 1121 677 q 1161 676 1198 601 q 1229 538 1229 510 z"},"\\":{"x_min":0,"x_max":369,"ha":369,"o":"m 0 510 q 3 493 44 422 q 81 359 117 297 q 156 227 186 88 q 190 65 193 42 q 200 11 211 -4 q 227 -9 260 -28 q 286 -43 304 -43 q 337 -43 352 -3 q 363 27 360 44 q 357 55 287 193 q 210 344 192 387 q 177 422 156 500 q 134 577 121 608 q 99 660 72 677 q 33 676 11 601 q -6 538 0 510 z"},"e":{"x_min":0,"x_max":651,"ha":651,"o":"m 642 9 q 580 -9 485 -26 q 395 -43 370 -43 l 165 -43 q 80 -43 39 85 q 10 174 10 292 q 10 302 18 402 q 26 501 26 536 q 54 573 117 585 q 175 592 233 600 q 302 612 340 647 q 367 650 446 664 q 519 677 532 677 q 549 677 582 662 q 606 650 630 639 l 630 567 q 603 552 577 537 q 538 516 519 516 q 504 516 498 528 q 491 541 476 541 q 465 541 359 516 q 248 490 205 486 q 173 484 134 447 l 134 386 q 141 379 150 373 q 158 367 178 367 q 193 367 252 386 q 311 404 327 404 q 348 404 482 337 q 436 268 401 268 q 388 268 388 271 q 388 272 389 274 q 390 276 390 277 q 390 280 376 280 q 346 280 270 265 q 179 246 121 222 q 123 143 144 118 q 164 94 234 94 q 273 94 363 109 q 375 111 402 134 q 428 156 445 156 q 458 156 480 131 q 503 106 519 106 q 531 106 531 111 q 531 114 528 119 q 526 124 526 126 q 526 131 538 131 q 552 131 578 117 q 604 103 614 101 q 621 97 629 79 q 637 58 642 53 z"},"b":{"x_min":0,"x_max":563,"ha":563,"o":"m 553 186 q 553 81 464 12 q 387 -48 297 -48 l 236 -48 q 177 -48 104 -29 q 6 -3 6 39 q 6 50 28 72 q 47 90 65 107 q 68 121 78 149 q 99 186 99 230 q 99 243 96 269 q 94 295 94 308 q 94 320 95 330 q 103 398 149 477 q 152 481 157 486 q 162 490 175 490 q 187 490 218 465 q 244 443 271 420 q 334 452 414 504 l 414 554 q 379 585 319 585 q 276 585 117 496 q 108 490 108 464 q 81 480 34 465 q 34 467 29 474 q 24 482 24 494 q 24 512 50 528 q 73 540 95 552 q 99 554 132 584 q 160 608 183 616 q 229 633 294 652 q 364 672 379 672 q 420 672 470 641 q 527 607 527 568 q 527 546 514 520 q 485 461 423 399 q 432 387 470 356 q 508 326 523 306 q 544 277 550 245 q 553 230 553 186 z m 457 230 q 457 266 413 300 q 369 334 332 334 q 316 334 283 319 q 259 309 236 298 q 226 288 226 257 q 226 247 228 223 q 229 199 229 187 q 229 106 172 98 l 172 66 q 186 63 228 45 q 265 30 275 30 q 319 30 388 106 q 457 183 457 230 z"},"%":{"x_min":0,"x_max":889,"ha":889,"o":"m 58 544 q 58 621 96 674 q 135 728 208 728 q 276 728 320 680 q 364 632 364 539 q 364 448 320 399 q 275 350 209 350 q 145 350 102 398 q 58 446 58 544 z m 211 667 q 178 667 156 639 q 135 611 135 535 q 135 466 157 438 q 179 410 211 410 q 244 410 266 438 q 288 467 288 542 q 288 611 266 639 q 244 667 211 667 z m 211 -26 l 603 728 l 674 728 l 284 -26 z m 521 168 q 521 245 560 298 q 598 352 672 352 q 739 352 784 304 q 828 256 828 163 q 828 72 783 23 q 738 -26 672 -26 q 607 -26 564 22 q 521 71 521 168 z m 674 292 q 641 292 620 264 q 598 235 598 159 q 598 91 620 62 q 642 34 674 34 q 708 34 730 62 q 751 91 751 166 q 751 235 729 264 q 707 292 674 292 z"},"m":{"x_min":0,"x_max":742,"ha":742,"o":"m 730 565 q 730 551 693 291 q 655 28 655 16 l 655 -21 q 651 -21 642 -27 q 634 -33 619 -33 q 582 -33 563 23 q 550 60 550 94 q 550 107 571 176 q 592 246 593 260 l 593 351 q 601 359 576 359 q 565 359 506 316 q 446 274 433 274 q 410 274 318 351 q 227 428 214 458 q 209 477 188 477 q 178 417 167 302 q 153 162 148 120 q 145 102 169 55 q 158 50 130 32 q 101 15 91 10 q 74 10 55 34 q 55 49 32 90 q 10 131 10 142 q 10 146 49 323 q 50 328 50 333 q 50 343 45 367 q 40 391 40 403 q 40 417 45 427 q 70 491 96 556 q 128 623 169 623 q 197 623 252 565 q 269 546 303 499 q 334 456 357 435 q 362 433 402 433 q 438 433 513 473 q 593 515 599 545 q 603 564 623 610 q 643 656 647 675 l 686 675 q 686 669 700 657 q 713 645 715 641 q 719 623 724 605 q 730 581 730 565 z"},"#":{"x_min":0,"x_max":556,"ha":556,"o":"m 50 -12 l 93 196 l 10 196 l 10 269 l 107 269 l 144 446 l 10 446 l 10 519 l 158 519 l 201 728 l 274 728 l 231 519 l 385 519 l 428 728 l 501 728 l 459 519 l 543 519 l 543 446 l 444 446 l 408 269 l 543 269 l 543 196 l 393 196 l 351 -12 l 277 -12 l 319 196 l 166 196 l 124 -12 z m 181 269 l 334 269 l 371 446 l 217 446 z"},",":{"x_min":0,"x_max":298,"ha":298,"o":"m 227 51 q 227 44 220 40 q 214 37 214 37 q 213 18 187 -48 q 157 -55 130 -85 q 122 -86 102 -89 q 81 -92 74 -92 q 53 -92 44 -86 q 35 -80 21 -55 q 55 -55 73 -57 q 91 -59 91 -59 q 136 -59 157 -1 q 152 1 115 4 q 111 10 106 16 q 100 23 100 30 q 100 46 134 79 q 142 83 160 91 q 160 89 165 82 q 170 75 170 73 q 168 73 163 71 q 158 69 155 69 q 153 62 151 55 q 149 48 137 43 q 133 43 133 38 q 134 35 136 32 q 138 30 145 30 q 153 30 166 42 q 179 55 183 66 q 189 82 180 100 q 197 100 227 95 z"},"n":{"x_min":0,"x_max":766,"ha":766,"o":"m 762 608 q 762 593 712 416 q 639 156 615 67 q 615 67 581 43 q 556 26 535 21 q 535 20 497 33 q 480 48 480 79 q 481 116 475 127 q 389 300 306 407 q 280 395 253 286 q 222 165 190 129 q 164 100 140 54 q 119 13 99 -29 l 34 -29 q 7 -2 7 23 q 7 38 64 173 q 122 308 164 392 q 169 402 222 474 q 258 523 258 563 q 258 572 256 582 q 260 582 272 595 q 285 608 302 608 q 317 608 332 601 q 348 594 359 594 q 359 553 387 463 q 403 451 427 427 q 434 387 466 331 q 501 270 532 254 q 545 259 562 286 q 580 312 583 327 q 581 350 589 392 q 684 580 681 677 q 723 678 746 650 q 762 630 762 608 z"},"h":{"x_min":0,"x_max":800,"ha":800,"o":"m 796 647 q 796 627 784 573 q 773 519 763 489 q 720 361 677 233 q 629 95 586 -5 q 555 -12 500 -31 q 488 -13 475 6 q 460 29 460 47 q 460 63 480 104 q 503 153 509 176 q 496 178 392 203 q 316 221 298 221 q 219 221 196 7 l 194 -5 q 189 -7 120 -17 q 66 -26 19 -42 q 19 -38 12 -25 q 4 -12 4 5 q 4 20 27 54 q 55 97 60 109 q 77 147 95 186 q 117 236 124 273 q 107 295 66 295 l 66 340 q 80 337 93 337 q 157 337 206 417 q 225 448 277 572 q 314 663 345 677 q 357 677 378 662 q 400 647 400 629 q 400 607 371 533 q 344 463 316 405 l 316 361 q 348 341 412 341 q 449 341 494 350 q 550 361 570 378 q 615 418 644 473 q 660 504 684 575 q 707 641 727 676 l 781 676 q 796 675 796 647 z"},"z":{"x_min":0,"x_max":729,"ha":729,"o":"m 720 49 q 696 30 650 3 q 643 0 632 0 q 621 0 584 6 q 546 11 526 11 q 456 10 386 9 q 297 1 262 -44 q 258 -43 216 -21 q 190 -7 170 -7 q 159 -7 148 -11 q 133 4 133 38 q 133 80 147 104 q 169 137 192 170 q 241 247 388 492 q 334 540 235 540 q 220 540 190 539 q 160 538 145 538 q 51 538 0 582 q 10 586 36 608 q 58 626 72 627 q 198 629 435 644 q 441 654 458 675 q 459 675 507 654 q 534 642 573 642 q 587 627 587 592 q 587 544 571 522 q 459 378 332 139 q 356 116 372 112 q 377 110 404 110 q 418 110 434 102 q 454 92 461 91 q 479 87 511 87 q 522 87 545 87 q 569 88 581 88 q 679 88 720 49 z"},"B":{"x_min":0,"x_max":768,"ha":768,"o":"m 759 137 q 759 -9 636 -105 q 528 -188 404 -188 l 319 -188 q 238 -188 136 -161 q 0 -125 0 -67 q 0 -51 31 -21 q 56 3 82 27 q 85 46 100 86 q 128 137 128 198 q 128 217 125 252 q 122 288 122 307 q 122 323 124 337 q 134 431 198 541 q 203 546 208 552 q 217 559 235 559 q 251 559 294 524 q 331 493 368 463 q 455 506 567 578 l 567 649 q 518 692 434 692 q 374 692 154 567 q 142 560 142 524 q 125 533 95 533 q 65 533 39 524 q 39 528 32 538 q 24 548 24 565 q 24 589 61 612 q 92 629 123 645 q 128 648 175 690 q 214 723 245 735 q 309 758 400 784 q 497 812 518 812 q 575 812 645 769 q 723 721 723 667 q 723 637 706 602 q 665 519 578 432 q 592 416 644 374 q 696 331 717 304 q 748 263 755 219 q 759 198 759 137 z m 626 198 q 626 248 563 296 q 504 342 452 342 q 430 342 384 322 q 352 308 319 293 q 305 278 305 236 q 305 222 307 189 q 309 156 309 138 q 309 26 230 15 l 230 -29 q 250 -34 308 -58 q 359 -80 373 -80 q 434 -80 530 26 q 626 133 626 198 z"},"K":{"x_min":0,"x_max":1050,"ha":1050,"o":"m 1037 -61 q 1031 -61 1000 -82 q 970 -104 942 -104 q 749 -104 604 -80 q 558 -72 432 -38 q 323 -8 298 -8 q 233 -8 233 -71 q 233 -82 236 -105 q 238 -128 238 -138 q 238 -181 202 -181 q 123 -181 67 -96 q 19 -23 19 50 q 19 77 27 101 q 28 103 51 159 q 59 177 59 210 q 59 220 58 242 q 57 263 57 275 q 57 308 63 331 q 105 495 252 799 l 324 799 q 347 775 363 729 q 377 688 377 656 q 377 629 356 358 l 375 358 q 397 358 397 351 q 397 349 393 342 q 389 334 389 330 q 389 324 394 319 q 414 339 474 361 q 576 397 583 400 q 654 431 773 523 q 906 625 927 682 l 998 682 q 998 650 984 603 q 969 550 951 533 q 854 446 666 337 q 429 198 365 154 q 400 88 452 88 q 476 88 658 69 q 841 50 865 50 l 997 67 q 997 36 1037 -61 z"},"R":{"x_min":0,"x_max":1222,"ha":1222,"o":"m 1212 21 q 1134 -54 1057 -74 q 1016 -85 904 -85 q 772 -85 596 -43 q 427 -3 320 50 q 313 41 304 -25 q 295 -95 278 -128 q 253 -181 202 -181 q 178 -181 136 -143 q 74 -88 58 -77 q 93 -16 134 157 q 173 326 173 406 q 173 472 130 513 q 102 539 0 597 q 22 627 43 658 q 77 704 106 704 q 130 704 168 694 q 207 685 231 685 q 255 685 476 752 q 697 819 721 819 q 799 819 865 740 q 923 671 923 617 q 923 579 919 563 q 914 539 894 519 q 834 459 692 341 q 549 223 481 154 q 496 126 527 102 q 558 78 588 74 q 783 50 865 50 l 1144 50 q 1183 50 1212 21 z m 768 575 l 768 664 l 700 664 q 690 659 650 629 q 621 608 596 608 q 572 608 572 617 l 572 617 q 572 627 548 627 q 435 627 376 536 q 327 461 327 348 q 327 308 344 286 q 369 254 393 223 q 445 275 595 406 q 714 511 768 575 z"},"T":{"x_min":0,"x_max":860,"ha":860,"o":"m 1014 780 q 1003 770 993 748 q 983 725 983 713 q 923 698 771 641 q 638 591 619 591 q 566 591 480 549 q 468 405 436 149 q 439 164 439 46 q 439 -185 351 -185 q 336 -185 326 -182 q 315 -178 314 -178 q 310 -178 304 -185 q 299 -161 274 -87 q 254 -27 254 -6 q 254 12 270 44 q 290 83 293 93 q 314 168 330 296 q 343 402 343 442 q 343 466 325 484 q 307 501 284 501 q 264 501 228 473 q 179 434 175 432 q 152 418 107 411 q 51 402 36 397 l 1 432 l 1 483 q 133 592 262 645 q 399 700 545 753 q 713 815 739 815 q 762 815 769 806 q 776 797 782 788 q 868 806 965 794 q 987 780 1014 780 z"},"P":{"x_min":0,"x_max":889,"ha":889,"o":"m 875 519 q 875 505 862 447 q 848 382 845 357 q 822 325 779 286 q 727 239 696 228 q 669 220 618 215 q 576 212 534 208 q 535 188 506 188 q 492 188 465 176 q 438 163 425 163 q 411 163 388 176 q 366 188 350 188 q 289 188 232 100 q 206 61 145 -70 q 98 -170 70 -186 l 14 -186 q 14 -182 7 -160 q 0 -139 0 -125 q 0 -110 22 -80 q 44 -50 47 -38 q 50 -22 48 23 q 45 64 54 84 q 75 142 116 242 q 126 260 156 294 q 187 328 196 347 q 216 391 237 436 q 264 488 294 488 q 317 488 340 470 q 363 453 363 431 q 363 392 312 317 q 312 275 344 275 l 406 275 q 469 275 591 330 q 718 388 733 433 q 750 485 750 506 q 750 628 578 669 q 500 688 356 688 q 346 688 242 643 q 139 598 101 602 q 105 651 208 721 q 278 767 341 795 q 354 800 383 802 q 403 803 436 801 q 477 800 481 800 q 486 800 513 802 q 540 805 558 805 q 597 805 621 795 q 685 768 776 676 q 875 576 875 519 z"},"|":{"x_min":0,"x_max":259,"ha":259,"o":"m 92 -210 l 92 728 l 168 728 l 168 -210 z"},"t":{"x_min":0,"x_max":669,"ha":669,"o":"m 732 650 q 710 628 710 602 q 666 591 557 550 q 461 514 448 514 q 410 514 348 484 q 339 380 316 196 q 318 206 318 121 q 318 -45 255 -45 q 244 -45 236 -42 q 229 -40 228 -40 q 226 -40 221 -45 q 217 -28 199 26 q 185 69 185 84 q 185 97 197 120 q 211 148 213 155 q 228 209 240 301 q 249 378 249 406 q 249 424 236 436 q 223 449 206 449 q 192 449 166 429 q 131 400 128 399 q 112 389 79 384 q 39 378 28 374 l 3 399 l 3 436 q 98 514 191 552 q 492 675 534 675 q 551 675 556 668 q 561 662 565 656 q 627 669 697 660 q 713 650 732 650 z"},"M":{"x_min":0,"x_max":1016,"ha":1016,"o":"m 1000 660 q 1000 641 948 279 q 896 -86 896 -103 l 896 -154 q 890 -154 878 -162 q 867 -171 846 -171 q 795 -171 768 -93 q 750 -41 750 6 q 750 24 780 120 q 809 217 809 236 l 809 362 q 812 365 812 367 q 812 373 787 373 q 771 373 688 314 q 605 256 588 256 q 555 256 428 362 q 302 469 283 511 q 277 537 247 537 q 233 454 217 295 q 199 100 191 42 q 188 17 220 -48 q 205 -55 166 -80 q 127 -104 112 -112 q 89 -112 63 -77 q 63 -56 32 0 q 0 56 0 72 q 0 92 20 177 q 37 250 53 324 q 55 330 55 338 q 55 352 48 385 q 42 418 42 435 q 42 454 48 468 q 84 558 119 647 q 164 741 221 741 q 260 741 336 660 q 360 634 408 568 q 450 509 482 479 q 489 476 544 476 q 594 476 699 532 q 809 591 818 632 q 824 659 852 723 q 879 787 885 813 l 939 813 q 939 804 956 789 q 976 771 979 766 q 985 741 992 716 q 1000 682 1000 660 z"},"g":{"x_min":0,"x_max":701,"ha":701,"o":"m 687 512 q 680 509 647 479 q 618 453 601 453 q 584 453 576 459 q 567 465 564 465 q 555 494 547 523 q 533 569 508 569 q 496 569 475 558 q 454 546 439 546 q 424 546 416 552 q 407 558 392 558 q 370 558 267 496 q 206 459 171 365 q 162 365 145 352 q 144 336 132 294 q 119 253 119 238 q 119 198 154 198 l 241 198 q 266 198 364 223 q 475 252 541 281 q 573 296 598 371 l 650 371 q 657 358 676 333 q 612 162 543 40 q 536 37 500 3 q 463 -31 426 -46 q 398 -21 398 12 q 398 29 417 70 q 442 122 445 132 q 447 133 447 135 q 447 140 427 140 q 415 140 371 122 q 327 105 312 105 q 296 105 247 94 q 198 82 183 82 q 160 82 123 95 q 80 110 52 132 q 45 138 32 161 q 19 184 7 191 q 3 205 3 256 q 3 270 15 302 q 30 342 34 356 q 78 546 276 634 q 304 646 393 655 q 463 662 497 662 q 548 662 599 636 q 608 631 687 579 z"},"j":{"x_min":0,"x_max":893,"ha":893,"o":"m 913 611 l 902 595 q 892 591 872 594 q 844 597 841 597 q 816 597 778 585 q 726 568 715 565 q 688 560 680 557 q 658 551 643 540 q 628 462 576 261 q 525 66 511 -11 q 499 -19 488 -27 q 472 -38 460 -38 q 448 -38 421 -16 q 401 1 381 19 q 350 42 308 56 q 294 61 230 77 q 139 101 7 116 q 7 118 2 125 q -2 132 -2 144 q -2 181 85 223 q 160 258 188 258 q 211 258 234 248 q 234 227 230 219 q 224 220 210 212 q 212 205 224 192 q 289 189 346 152 q 389 120 433 89 q 499 267 566 467 l 566 515 q 555 521 502 521 q 496 521 445 501 q 387 478 374 464 q 371 461 368 458 q 362 453 349 453 q 337 453 326 458 q 315 463 312 463 l 312 502 q 422 549 492 565 q 495 566 510 582 q 525 597 536 597 q 546 597 546 593 q 546 589 557 589 q 568 589 680 631 q 792 673 803 673 q 839 673 867 649 q 910 612 913 611 z"},"i":{"x_min":0,"x_max":277,"ha":277,"o":"m 269 510 q 269 493 243 422 q 220 359 197 297 q 172 227 172 88 q 172 84 174 59 q 175 38 174 26 q 173 7 167 -4 q 152 -9 122 -28 q 100 -43 82 -43 q 49 -43 25 -3 q 8 27 8 44 q 8 55 49 193 q 94 344 103 387 q 110 422 115 500 q 120 577 127 608 q 137 660 161 677 q 201 676 238 601 q 269 538 269 510 z"},"y":{"x_min":0,"x_max":514,"ha":514,"o":"m 500 623 q 500 612 469 534 q 432 441 420 400 q 413 377 406 309 q 398 241 388 208 q 379 174 368 140 q 353 92 351 62 q 343 51 327 29 q 324 10 324 -34 q 320 -34 304 -40 q 288 -46 274 -46 q 221 -46 202 62 q 202 75 253 170 q 304 265 304 278 q 304 289 255 318 q 197 353 174 380 q 108 463 7 564 l 7 621 q 11 621 19 627 q 27 633 42 633 q 88 633 143 577 q 145 575 231 473 q 278 417 304 417 q 333 417 358 484 q 379 546 401 608 q 427 674 459 674 q 500 674 500 623 z"},"@":{"x_min":0,"x_max":1111,"ha":1111,"o":"m 1098 408 q 1098 350 1011 178 q 931 20 911 3 q 850 -47 721 -106 q 599 -161 559 -161 l 375 -161 q 347 -161 317 -161 q 287 -162 283 -162 q 260 -162 238 -145 q 192 -109 86 -60 q 46 24 32 201 q 32 205 15 238 q 0 268 0 300 q 0 326 33 408 q 59 470 84 531 q 119 624 289 715 q 446 800 539 800 q 632 800 760 750 q 901 694 991 612 q 1098 515 1098 408 z m 210 89 q 218 163 229 228 q 233 249 253 289 q 275 333 280 350 q 281 355 284 391 q 286 420 295 435 q 304 450 371 517 q 391 537 424 563 q 417 584 404 623 q 389 608 327 561 q 275 522 261 502 q 229 453 193 359 q 157 265 157 231 q 157 190 210 89 z m 498 50 q 564 190 564 228 l 564 254 q 560 259 557 264 q 554 269 540 269 q 524 269 506 253 q 454 246 402 238 q 359 229 344 197 q 330 165 316 107 q 303 53 291 -1 l 283 -1 q 307 -4 353 -4 q 428 -4 441 4 q 454 29 483 48 q 490 49 498 50 z m 713 461 q 713 397 700 356 q 680 306 640 197 q 624 149 608 81 q 718 124 792 189 q 882 270 882 359 q 882 435 846 516 q 798 624 716 624 q 660 624 624 594 q 656 559 686 513 q 713 471 713 461 z m 601 414 q 601 496 570 522 q 548 481 540 470 q 522 442 501 427 q 475 453 456 487 q 409 447 377 397 l 377 308 q 424 313 460 310 q 514 306 503 306 q 601 306 601 414 z"},".":{"x_min":0,"x_max":294,"ha":294,"o":"m 271 55 q 271 40 251 23 q 231 6 212 6 q 166 6 134 37 l 104 69 q 104 77 121 101 q 140 129 145 143 l 209 143 q 271 82 271 55 z"},"p":{"x_min":0,"x_max":652,"ha":652,"o":"m 642 460 q 642 450 633 409 q 623 362 621 344 q 604 321 573 292 q 536 259 513 251 q 498 246 397 237 q 398 222 377 222 q 367 222 348 213 q 328 204 319 204 q 309 204 292 213 q 276 222 265 222 q 220 222 179 159 q 161 131 117 36 q 83 -36 63 -48 l 23 -48 q 23 -44 18 -29 q 13 -14 13 -3 q 13 7 28 28 q 43 50 45 56 q 49 67 47 100 q 45 133 51 147 q 66 189 96 261 q 103 274 125 298 q 147 322 154 336 q 168 368 183 401 q 203 438 224 438 q 240 438 257 426 q 274 413 274 397 q 274 369 237 315 q 237 285 260 285 l 305 285 q 350 285 438 324 q 530 366 540 398 q 552 436 552 451 q 552 582 269 582 q 262 582 188 550 q 113 517 86 520 q 88 556 162 605 q 213 639 258 659 q 268 663 288 664 q 302 664 327 664 q 356 663 359 663 q 369 663 393 665 q 414 666 427 666 q 445 665 460 659 q 506 640 571 573 q 642 501 642 460 z"},"X":{"x_min":0,"x_max":983,"ha":983,"o":"m 975 -36 q 926 -140 858 -174 q 836 -119 696 11 q 547 150 488 150 q 450 150 428 125 q 399 95 396 94 q 312 -58 217 -149 q 173 -149 128 -134 q 83 -119 77 -119 q 87 -101 87 -72 q 87 -7 50 65 q 100 103 188 178 q 275 252 325 289 q 280 346 219 397 q 176 434 107 482 q 15 546 1 557 q 1 601 16 646 q 31 692 31 698 q 49 688 78 688 q 143 688 215 725 q 253 675 327 588 q 401 500 438 450 q 449 461 621 642 q 731 758 811 825 q 919 771 950 710 q 866 643 775 543 q 724 487 600 338 q 604 334 797 151 q 915 39 975 -36 z"},"*":{"x_min":0,"x_max":389,"ha":389,"o":"m 31 584 l 54 654 q 131 626 167 606 q 157 695 157 728 l 228 728 q 226 680 216 607 q 267 632 332 654 l 354 584 q 292 564 232 557 q 262 531 316 465 l 258 423 q 229 462 191 528 q 155 459 127 423 l 70 465 q 126 535 151 557 q 88 569 31 584 z"},"Y":{"x_min":0,"x_max":697,"ha":697,"o":"m 686 743 q 686 728 642 619 q 591 491 575 434 q 566 402 556 308 q 545 213 531 166 q 517 119 503 72 q 482 5 479 -36 q 474 -39 463 -55 q 447 -80 446 -81 q 441 -108 441 -169 q 436 -169 414 -178 q 392 -186 371 -186 q 298 -186 271 -36 q 271 -18 342 114 q 414 246 414 264 q 414 279 346 319 q 265 368 234 406 q 141 521 1 662 l 1 741 q 6 741 18 749 q 30 757 50 757 q 113 757 190 679 q 192 677 312 535 q 378 457 414 457 q 453 457 489 550 q 518 636 548 722 q 585 814 629 814 q 663 814 677 782 q 686 763 686 743 z"},"c":{"x_min":0,"x_max":746,"ha":746,"o":"m 739 122 q 724 91 687 40 q 646 34 520 5 q 411 -20 398 -20 q 384 -20 358 -26 q 332 -31 317 -31 q 303 -31 298 -20 q 292 -8 278 -8 q 265 -8 216 -20 q 168 -31 154 -31 q 68 -31 31 53 q 8 107 8 183 q 8 262 29 346 q 52 435 90 491 q 111 521 224 590 q 225 590 256 619 q 283 643 304 651 q 378 678 492 678 q 528 678 567 673 l 587 661 q 649 566 649 532 q 649 484 576 420 q 503 356 459 365 q 459 368 453 392 q 447 415 447 428 q 478 443 508 478 q 537 514 537 532 q 537 588 458 588 q 442 588 384 564 q 340 546 297 528 q 278 521 252 476 q 234 444 216 413 q 154 325 154 290 q 154 276 167 224 q 187 146 190 135 q 227 101 236 97 q 244 93 283 93 q 297 93 364 88 q 432 82 447 82 q 468 82 556 108 q 643 135 701 160 z"},"!":{"x_min":0,"x_max":263,"ha":263,"o":"m 191 5 q 191 -10 171 -27 q 151 -44 132 -44 q 86 -44 54 -13 l 24 19 q 24 27 41 51 q 60 79 65 93 l 129 93 q 191 32 191 5 z m 249 580 q 249 574 195 421 q 177 369 177 265 q 177 263 178 244 q 179 229 178 219 q 177 205 173 197 q 162 193 140 179 q 123 168 110 168 q 85 168 67 198 q 54 220 54 233 q 54 241 85 344 q 119 456 125 488 q 126 491 137 615 q 144 688 169 704 q 198 704 226 648 q 249 601 249 580 z"},"/":{"x_min":0,"x_max":369,"ha":369,"o":"m 357 510 q 353 493 312 422 q 276 359 240 297 q 200 227 171 88 q 167 65 163 42 q 157 11 146 -4 q 130 -9 96 -28 q 70 -43 53 -43 q 19 -43 4 -3 q -7 27 -3 44 q -1 55 70 193 q 147 344 165 387 q 179 422 201 500 q 223 577 235 608 q 257 660 285 677 q 324 676 345 601 q 363 538 357 510 z"},"[":{"x_min":0,"x_max":277,"ha":277,"o":"m 68 -199 l 68 716 l 262 716 l 262 643 l 156 643 l 156 -126 l 262 -126 l 262 -199 z"},"6":{"x_min":0,"x_max":871,"ha":871,"o":"m 677 581 q 631 569 631 515 q 631 525 636 455 q 604 438 564 382 q 528 332 518 301 q 514 287 488 249 q 455 199 447 186 q 420 141 375 94 q 327 45 280 18 q 173 -43 136 -43 q 117 -43 90 1 q 64 45 61 76 q 56 172 51 269 q 40 401 2 470 q 2 539 10 582 q 19 625 19 619 q 52 604 108 569 q 128 497 147 374 q 178 178 182 153 q 194 153 220 126 q 370 269 471 498 q 493 548 583 656 q 583 663 616 663 q 636 663 654 655 q 673 647 677 647 z m 859 510 q 859 493 833 422 q 810 359 787 297 q 762 227 762 88 q 762 84 764 59 q 765 38 764 26 q 763 7 757 -4 q 742 -9 712 -28 q 690 -43 672 -43 q 639 -43 615 -3 q 598 27 598 44 q 598 55 639 193 q 684 344 693 387 q 700 422 705 500 q 710 577 717 608 q 727 660 751 677 q 791 676 828 601 q 859 538 859 510 z"},"r":{"x_min":0,"x_max":878,"ha":878,"o":"m 872 105 q 816 50 760 36 q 731 28 650 28 q 555 28 429 58 q 307 87 230 126 q 225 119 219 72 q 212 21 200 -3 q 182 -41 145 -41 q 128 -41 98 -14 q 53 26 41 34 q 67 78 96 201 q 124 324 124 382 q 124 429 93 459 q 73 478 0 519 q 15 541 31 563 q 55 596 76 596 q 93 596 120 589 q 148 582 166 582 q 183 582 342 630 q 502 679 519 679 q 575 679 623 622 q 664 572 664 534 q 664 484 643 463 q 600 420 498 335 q 395 250 346 201 q 357 180 379 162 q 401 145 423 143 q 563 125 623 125 l 823 125 q 851 125 872 105 z m 552 503 l 552 567 l 503 567 q 496 564 467 542 q 447 527 429 527 q 412 527 412 534 l 412 534 q 412 541 394 541 q 313 541 270 475 q 235 421 235 340 q 235 311 247 295 q 265 273 283 250 q 320 288 428 382 q 514 457 552 503 z"},"2":{"x_min":0,"x_max":479,"ha":479,"o":"m 269 510 q 269 493 243 422 q 220 359 197 297 q 172 227 172 88 q 172 84 174 59 q 175 38 174 26 q 173 7 167 -4 q 152 -9 122 -28 q 100 -43 82 -43 q 49 -43 25 -3 q 8 27 8 44 q 8 55 49 193 q 94 344 103 387 q 110 422 115 500 q 120 577 127 608 q 137 660 161 677 q 201 676 238 601 q 269 538 269 510 z m 469 520 q 469 503 443 432 q 420 369 397 307 q 372 237 372 98 q 372 94 374 69 q 375 48 374 36 q 373 17 367 6 q 352 1 322 -18 q 300 -33 282 -33 q 249 -33 225 7 q 208 37 208 54 q 208 65 249 203 q 294 354 303 397 q 310 432 315 510 q 320 587 327 618 q 337 670 361 687 q 401 686 438 611 q 469 548 469 520 z"},"{":{"x_min":0,"x_max":333,"ha":333,"o":"m 28 299 q 65 300 89 319 q 113 338 120 372 q 128 406 128 488 q 129 569 132 595 q 136 636 148 661 q 160 686 178 700 q 195 715 223 723 q 241 728 283 728 l 311 728 l 311 651 l 295 651 q 245 651 228 633 q 211 615 211 551 q 211 423 206 390 q 197 337 176 309 q 155 281 109 259 q 163 236 187 190 q 211 144 211 39 q 211 -56 213 -74 q 217 -107 233 -120 q 249 -134 295 -134 l 311 -134 l 311 -210 l 283 -210 q 235 -210 214 -203 q 183 -191 162 -166 q 142 -141 136 -102 q 129 -64 128 24 q 128 112 120 146 q 113 179 89 198 q 65 218 28 219 z"},"9":{"x_min":0,"x_max":1005,"ha":1005,"o":"m 269 510 q 269 493 243 422 q 220 359 197 297 q 172 227 172 88 q 172 84 174 59 q 175 38 174 26 q 173 7 167 -4 q 152 -9 122 -28 q 100 -43 82 -43 q 49 -43 25 -3 q 8 27 8 44 q 8 55 49 193 q 94 344 103 387 q 110 422 115 500 q 120 577 127 608 q 137 660 161 677 q 201 676 238 601 q 269 538 269 510 z m 989 65 q 953 -10 904 -34 q 889 6 788 99 q 681 199 638 199 q 611 199 594 181 q 574 160 572 159 q 511 49 443 -16 q 412 -16 379 -5 q 346 6 342 6 q 349 18 349 39 q 349 86 323 138 q 359 165 422 218 q 485 272 521 299 q 488 340 444 377 q 413 404 364 438 q 298 484 288 492 q 288 524 298 556 q 309 589 309 594 q 322 587 343 587 q 389 587 442 613 q 469 577 522 514 q 575 451 602 415 q 610 423 734 553 q 813 637 871 685 q 948 646 970 602 q 884 533 719 335 q 722 332 860 200 q 946 119 989 65 z"}," ":{"x_min":0,"x_max":500,"ha":500,"o":""},"I":{"x_min":0,"x_max":393,"ha":393,"o":"m 379 584 q 379 562 343 462 q 312 375 280 289 q 246 191 246 -2 q 246 -7 248 -41 q 249 -70 248 -88 q 246 -113 238 -129 q 217 -136 176 -162 q 145 -183 121 -183 q 74 -183 41 -127 q 17 -86 17 -62 q 17 -47 74 145 q 137 354 149 414 q 159 463 166 571 q 173 679 182 721 q 197 794 230 817 q 285 815 336 711 q 379 624 379 584 z"},"H":{"x_min":0,"x_max":1115,"ha":1115,"o":"m 1100 775 q 1100 747 1084 672 q 1068 598 1054 556 q 994 378 934 201 q 869 8 808 -131 q 797 -136 752 -147 q 707 -158 689 -166 q 672 -141 654 -115 q 633 -84 633 -58 q 633 -36 661 22 q 694 90 701 121 q 683 124 539 158 q 433 183 408 183 q 355 183 318 104 q 291 48 276 -45 q 270 -88 264 -131 q 256 -133 161 -148 q 86 -160 20 -182 q 20 -177 10 -159 q 0 -141 0 -117 q 0 -95 31 -48 q 71 11 78 28 q 102 81 126 135 q 157 205 167 256 q 143 286 86 286 l 86 348 q 105 344 123 344 q 212 344 281 455 q 307 498 379 671 q 431 797 473 816 q 490 816 518 797 q 550 775 550 750 q 550 720 510 617 q 473 519 433 440 l 433 379 q 477 350 567 350 q 612 350 673 361 q 756 376 786 402 q 849 457 889 534 q 911 577 945 675 q 977 767 1004 815 l 1080 815 q 1100 814 1100 775 z"},"4":{"x_min":0,"x_max":992,"ha":992,"o":"m 269 510 q 269 493 243 422 q 220 359 197 297 q 172 227 172 88 q 172 84 174 59 q 175 38 174 26 q 173 7 167 -4 q 152 -9 122 -28 q 100 -43 82 -43 q 49 -43 25 -3 q 8 27 8 44 q 8 55 49 193 q 94 344 103 387 q 110 422 115 500 q 120 577 127 608 q 137 660 161 677 q 201 676 238 601 q 269 538 269 510 z m 977 581 q 931 569 931 515 q 931 525 936 455 q 904 438 864 382 q 828 332 818 301 q 814 287 788 249 q 755 199 747 186 q 720 141 675 94 q 627 45 580 18 q 473 -43 436 -43 q 417 -43 390 1 q 364 45 361 76 q 356 172 351 269 q 340 401 302 470 q 302 539 310 582 q 319 625 319 619 q 352 604 408 569 q 428 497 447 374 q 478 178 482 153 q 494 153 520 126 q 670 269 771 498 q 793 548 883 656 q 883 663 916 663 q 936 663 954 655 q 973 647 977 647 z"},"~":{"x_min":0,"x_max":466,"ha":466,"o":"m 441 293 q 441 242 360 221 q 316 210 258 210 q 249 210 200 214 q 152 219 141 219 q 131 219 104 193 q 76 167 67 167 q 55 167 41 176 q 27 186 24 186 q 37 216 72 253 q 115 297 150 297 q 161 297 189 292 q 217 288 228 288 q 232 288 250 287 q 267 286 278 287 q 294 287 305 290 q 313 293 353 318 q 388 341 402 341 q 413 341 418 336 q 423 331 431 331 q 431 328 436 316 q 441 305 441 293 z"},"D":{"x_min":0,"x_max":1000,"ha":1000,"o":"m 973 360 q 973 166 812 59 q 702 -15 473 -64 q 209 -121 170 -138 q 158 -145 158 -185 l 57 -185 q 26 -158 18 -149 q 0 -129 0 -107 q 0 -92 34 -36 q 72 27 100 27 q 117 27 117 20 q 117 13 133 13 q 150 13 180 24 q 209 34 219 35 q 528 69 711 149 q 733 159 786 239 q 840 319 840 340 q 840 361 832 372 q 824 383 817 392 q 821 410 821 429 q 821 502 752 570 q 699 623 617 662 q 590 675 538 679 q 509 680 409 680 q 406 678 393 674 q 387 673 387 653 q 387 638 404 615 q 420 592 422 581 q 453 396 453 307 q 453 273 384 178 q 377 176 356 164 q 357 164 358 163 q 355 160 333 160 q 282 160 263 217 q 253 245 253 280 q 253 297 280 398 q 307 498 307 515 l 307 604 l 285 627 q 276 623 246 596 q 221 573 207 573 q 194 573 180 576 q 165 579 160 579 q 150 579 138 574 q 107 628 107 665 q 228 754 271 768 q 331 787 437 801 q 524 813 560 813 q 605 813 722 745 q 831 682 847 659 q 882 618 954 517 q 972 487 974 433 q 973 456 973 360 z"},"^":{"x_min":0,"x_max":469,"ha":469,"o":"m 117 337 l 26 337 l 199 728 l 270 728 l 443 337 l 354 337 l 234 628 z"},"0":{"x_min":0,"x_max":798,"ha":798,"o":"m 794 383 q 794 341 732 217 q 674 104 659 92 q 616 55 523 13 q 435 -26 406 -26 l 274 -26 q 193 -26 197 -27 q 191 -26 170 -11 q 137 13 66 46 q 37 107 27 234 q 26 237 15 260 q 4 283 4 305 q 4 324 28 383 q 46 428 64 472 q 89 538 212 604 q 325 665 392 665 q 505 665 639 586 q 794 496 794 383 z m 639 348 q 639 402 613 461 q 578 538 519 538 q 474 538 446 511 q 431 496 407 452 q 385 412 364 397 q 337 424 319 468 q 316 476 295 538 q 252 507 192 450 q 169 415 143 348 q 117 280 117 256 q 117 214 190 91 q 210 87 258 87 q 312 87 321 92 q 330 111 352 124 q 429 129 524 189 q 639 261 639 348 z"},"F":{"x_min":0,"x_max":977,"ha":977,"o":"m 963 714 q 963 665 935 615 l 847 615 q 832 615 816 627 q 799 639 784 639 q 762 639 405 542 q 400 528 400 511 q 400 493 415 434 q 383 393 383 343 q 383 322 403 281 q 397 294 426 294 q 441 294 522 318 q 602 343 617 343 q 628 343 704 336 q 779 328 814 327 l 814 263 q 814 245 798 234 q 781 223 759 223 q 693 222 565 198 q 401 167 344 160 q 325 49 294 -174 q 290 -174 280 -181 q 271 -188 253 -188 q 184 -188 184 -96 q 184 -57 197 6 q 210 69 210 75 l 191 96 l 180 85 l 77 85 q 73 97 62 116 q 73 121 133 182 q 184 234 226 234 q 238 234 249 231 q 249 243 260 471 q 255 475 251 479 q 253 479 228 479 q 210 479 147 451 q 94 428 42 405 q 36 411 22 419 q 7 427 0 433 q 0 464 15 474 q 136 537 330 603 q 503 662 596 679 q 602 690 621 708 q 657 720 776 770 q 877 812 889 812 q 930 812 950 773 q 963 746 963 714 z"},"`":{"x_min":0,"x_max":299,"ha":299,"o":"m 55 676 q 57 669 76 640 q 92 615 108 589 q 126 561 139 504 q 140 495 142 486 q 145 473 150 467 q 157 465 172 457 q 184 451 192 451 q 207 451 214 467 q 218 479 217 486 q 216 491 184 547 q 149 608 141 626 q 135 640 125 672 q 115 703 110 716 q 100 737 88 744 q 70 744 61 713 q 53 687 55 676 z"},"k":{"x_min":0,"x_max":739,"ha":739,"o":"m 734 43 q 730 43 708 28 q 686 12 666 12 q 527 12 423 29 q 390 35 299 60 q 221 81 202 81 q 156 81 156 36 q 156 27 158 10 q 159 -6 159 -13 q 159 -44 133 -44 q 76 -44 36 17 q 2 70 2 123 q 2 146 13 172 q 26 202 28 214 q 31 230 29 269 q 28 305 33 325 q 63 443 169 662 l 221 662 q 238 645 249 614 q 260 582 260 559 q 260 539 244 344 l 258 344 q 274 344 274 339 q 274 338 271 332 q 268 327 268 324 q 268 320 272 316 q 286 331 329 346 q 403 373 407 375 q 459 397 544 463 q 640 537 655 578 l 706 578 q 706 555 697 520 q 686 482 673 470 q 602 408 468 329 q 297 229 251 197 q 276 150 313 150 q 331 150 462 136 q 594 123 611 123 l 706 135 q 706 112 734 43 z"},"u":{"x_min":0,"x_max":632,"ha":632,"o":"m 622 324 q 622 302 598 232 q 573 158 549 113 q 547 105 553 88 q 557 76 562 64 q 521 -5 489 -5 q 473 -5 470 2 q 467 8 451 8 q 435 8 382 -18 q 328 -43 312 -43 q 127 -43 60 105 q 15 202 15 412 q 15 423 22 508 q 30 593 30 625 q 43 625 70 651 q 80 651 99 642 q 118 632 124 622 q 126 603 142 565 q 158 527 162 508 q 167 485 167 457 q 167 424 158 356 q 149 288 149 255 q 149 242 150 229 q 154 179 201 108 q 258 118 319 150 q 400 193 441 257 q 473 307 473 453 q 473 469 473 501 q 472 534 472 550 q 472 628 479 676 q 522 676 553 645 q 563 627 565 548 q 569 431 571 406 q 572 395 597 368 q 622 340 622 324 z"},"]":{"x_min":0,"x_max":277,"ha":277,"o":"m 213 -199 l 19 -199 l 19 -126 l 125 -126 l 125 643 l 19 643 l 19 716 l 213 716 z"},"U":{"x_min":0,"x_max":871,"ha":871,"o":"m 860 326 q 860 296 827 199 q 792 96 758 34 q 755 23 764 0 q 770 -18 776 -35 q 720 -130 675 -130 q 653 -130 649 -121 q 645 -112 623 -112 q 601 -112 526 -147 q 452 -182 430 -182 q 172 -182 79 22 q 18 158 18 449 q 18 464 28 582 q 38 700 38 745 q 56 745 93 782 q 107 782 134 768 q 160 754 168 741 q 172 714 193 664 q 216 609 221 582 q 228 550 228 511 q 228 466 215 371 q 202 276 202 231 q 202 212 204 195 q 210 125 275 27 q 355 41 440 86 q 552 145 609 235 q 653 303 653 506 q 653 528 652 573 q 652 618 652 641 q 652 749 661 815 q 721 815 763 772 q 778 748 781 638 q 786 475 789 441 q 791 425 826 388 q 860 350 860 326 z"},"o":{"x_min":0,"x_max":798,"ha":798,"o":"m 794 383 q 794 341 732 217 q 674 104 659 92 q 616 55 523 13 q 435 -26 406 -26 l 274 -26 q 193 -26 197 -27 q 191 -26 170 -11 q 137 13 66 46 q 37 107 27 234 q 26 237 15 260 q 4 283 4 305 q 4 324 28 383 q 46 428 64 472 q 89 538 212 604 q 325 665 392 665 q 505 665 639 586 q 794 496 794 383 z m 639 348 q 639 402 613 461 q 578 538 519 538 q 474 538 446 511 q 431 496 407 452 q 385 412 364 397 q 337 424 319 468 q 316 476 295 538 q 252 507 192 450 q 169 415 143 348 q 117 280 117 256 q 117 214 190 91 q 210 87 258 87 q 312 87 321 92 q 330 111 352 124 q 429 129 524 189 q 639 261 639 348 z"},"N":{"x_min":0,"x_max":1062,"ha":1062,"o":"m 1049 718 q 1049 697 980 452 q 878 91 845 -33 q 844 -33 797 -66 q 762 -90 734 -97 q 728 -100 708 -92 q 694 -86 680 -80 q 657 -60 657 -17 q 658 35 650 50 q 530 291 416 440 q 385 425 361 346 q 341 268 320 190 q 291 94 255 54 q 219 13 185 -51 q 156 -108 127 -166 l 38 -166 q 0 -129 0 -93 q 0 -73 80 114 q 159 302 218 418 q 233 448 272 498 q 310 547 324 571 q 348 614 348 656 q 348 669 346 682 q 351 682 368 700 q 386 718 410 718 q 431 718 452 708 q 474 699 489 699 q 489 642 528 517 q 534 509 556 492 q 578 475 583 467 q 594 411 638 333 q 686 249 730 226 q 755 238 798 320 q 803 330 802 358 q 801 392 802 400 q 804 410 808 418 q 872 544 897 613 q 939 726 937 814 q 994 816 1026 777 q 1049 749 1049 718 z"},"+":{"x_min":0,"x_max":1000,"ha":1000,"o":"m 987 479 q 969 480 930 465 q 870 443 859 440 q 839 434 709 391 q 612 359 548 347 q 527 336 494 310 q 493 283 475 183 q 457 88 457 27 q 404 20 321 43 q 314 84 314 128 q 314 203 335 280 q 326 293 315 307 q 304 321 280 321 q 261 321 256 306 q 251 290 231 291 l 9 291 l 9 365 q 36 373 112 384 q 193 395 236 407 q 307 426 353 463 q 394 495 417 577 q 428 616 446 725 l 516 725 q 565 705 565 660 q 565 646 558 608 q 551 571 552 550 q 560 540 568 532 q 575 523 600 523 q 619 523 661 546 q 712 574 730 580 q 802 601 888 601 q 906 601 939 592 q 972 583 987 583 z"},"G":{"x_min":0,"x_max":967,"ha":967,"o":"m 950 592 q 940 588 894 546 q 854 510 831 510 q 807 510 796 518 q 784 527 779 527 q 767 567 755 607 q 736 671 702 671 q 685 671 656 655 q 626 639 605 639 q 585 639 572 647 q 560 655 540 655 q 510 655 367 569 q 282 518 234 387 q 225 385 216 383 q 204 380 197 370 q 195 346 178 287 q 161 232 161 211 q 161 155 210 155 l 331 155 q 366 155 502 190 q 656 230 747 271 q 791 291 826 396 l 899 396 q 907 388 917 369 q 927 350 935 342 q 846 105 749 -65 q 741 -69 690 -116 q 639 -163 587 -184 q 548 -149 548 -103 q 548 -80 575 -23 q 609 50 614 63 q 616 65 616 68 q 616 74 589 74 q 572 74 512 50 q 451 26 427 26 q 407 26 338 10 q 270 -6 250 -6 q 218 -6 166 12 q 106 33 68 64 q 58 72 40 104 q 22 135 6 146 q 0 166 0 235 q 0 256 17 300 q 38 355 43 374 q 105 639 380 761 q 418 778 542 790 q 639 800 685 800 q 757 800 827 764 q 841 756 950 685 z"},"q":{"x_min":0,"x_max":694,"ha":694,"o":"m 682 232 q 682 201 592 70 q 591 62 598 43 q 605 24 605 6 q 605 -8 602 -24 q 600 -41 569 -41 q 554 -41 518 -1 q 483 39 469 39 q 452 39 399 12 q 346 -15 329 -15 l 209 -15 q 188 -15 153 6 q 122 24 98 49 q 89 57 56 80 q 28 99 20 112 q 5 136 2 195 q 2 199 2 278 q 2 311 15 366 q 31 432 52 462 q 68 486 74 524 q 93 533 132 570 q 170 607 192 619 q 229 640 284 659 q 338 678 362 678 q 381 678 415 654 q 441 634 466 614 q 597 512 643 424 q 682 349 682 232 z m 576 305 q 576 357 570 368 q 552 389 529 418 q 480 450 402 484 q 325 518 302 518 q 224 518 179 356 q 149 247 149 179 q 149 159 156 142 q 164 125 164 120 q 187 120 239 118 q 288 116 314 116 q 356 117 389 123 q 375 137 356 158 q 336 179 322 192 q 329 199 346 202 q 363 205 370 212 q 450 159 476 159 q 518 159 549 214 q 576 262 576 305 z"},"d":{"x_min":0,"x_max":720,"ha":720,"o":"m 707 347 q 707 207 591 130 q 511 77 347 42 q 156 1 128 -11 q 120 -16 120 -46 l 48 -46 q 6 -10 6 11 q 6 22 31 62 q 58 107 78 107 q 90 107 90 102 q 90 98 102 98 q 114 98 136 105 q 157 112 164 113 q 386 137 518 195 q 534 203 572 260 q 611 318 611 333 q 611 348 594 370 q 597 383 597 396 q 597 494 451 565 q 423 578 301 578 q 299 576 289 573 q 285 572 285 558 q 285 547 296 530 q 308 514 310 506 q 333 373 333 309 q 333 285 283 216 q 278 215 263 206 q 269 203 246 203 q 189 203 189 289 q 189 302 208 374 q 227 447 227 459 l 227 523 l 211 539 q 205 536 183 517 q 165 501 155 501 q 149 501 129 504 q 117 506 106 501 q 84 540 84 566 q 171 631 202 641 q 244 654 321 665 q 384 673 409 673 q 442 673 526 624 q 604 579 616 562 q 641 533 693 460 q 706 439 708 400 q 707 416 707 347 z"},"1":{"x_min":0,"x_max":277,"ha":277,"o":"m 269 510 q 269 493 243 422 q 220 359 197 297 q 172 227 172 88 q 172 84 174 59 q 175 38 174 26 q 173 7 167 -4 q 152 -9 122 -28 q 100 -43 82 -43 q 49 -43 25 -3 q 8 27 8 44 q 8 55 49 193 q 94 344 103 387 q 110 422 115 500 q 120 577 127 608 q 137 660 161 677 q 201 676 238 601 q 269 538 269 510 z"},"5":{"x_min":0,"x_max":682,"ha":682,"o":"m 677 581 q 631 569 631 515 q 631 525 636 455 q 604 438 564 382 q 528 332 518 301 q 514 287 488 249 q 455 199 447 186 q 420 141 375 94 q 327 45 280 18 q 173 -43 136 -43 q 117 -43 90 1 q 64 45 61 76 q 56 172 51 269 q 40 401 2 470 q 2 539 10 582 q 19 625 19 619 q 52 604 108 569 q 128 497 147 374 q 178 178 182 153 q 194 153 220 126 q 370 269 471 498 q 493 548 583 656 q 583 663 616 663 q 636 663 654 655 q 673 647 677 647 z"}}}
